<svg id="Ebene_1" data-name="Ebene 1" xmlns="http://www.w3.org/2000/svg" viewBox="0 0 542.65 113.68"><defs><style>.cls-1{fill:#575756;}.cls-2{fill:#ec6608;}</style></defs><path class="cls-1" d="M74.82,68.5H66.61v-33H44.36v33H36.15V27.3H66.61q6.65,0,8,5.62a14.92,14.92,0,0,1,.22,2.6Z"/><path class="cls-1" d="M116.36,35.51H92v8.28h24.35Zm8.21,8.28a8.21,8.21,0,0,1-2.12,5.76A8,8,0,0,1,116.36,52H92v8.28h30.46V68.5H92a7.89,7.89,0,0,1-5.91-2.36,8,8,0,0,1-2.3-5.85V35.51a8.4,8.4,0,0,1,2.12-5.89A7.88,7.88,0,0,1,92,27.3h24.35a7.92,7.92,0,0,1,5.91,2.35,8.06,8.06,0,0,1,2.3,5.86Z"/><path class="cls-1" d="M149.34,68.5H141.2a7.94,7.94,0,0,1-5.89-2.35A8,8,0,0,1,133,60.29V15.58h8.21V27.3h8.14v8.22H141.2V60.29h8.14Z"/><polygon class="cls-1" points="197.91 68.5 157.13 68.5 157.13 64.36 184.29 35.52 157.13 35.52 157.13 27.3 197.91 27.3 197.91 31.44 170.68 60.29 197.91 60.29 197.91 68.5"/><path class="cls-2" d="M239.17,35.52H214.82V60.29h24.35Zm8.21,25A7.77,7.77,0,0,1,245,66.08a7.87,7.87,0,0,1-5.84,2.42H214.82V82.18h-8.21V27.3h32.56a8.28,8.28,0,0,1,5.17,1.62,7.68,7.68,0,0,1,2.83,4.42,11.12,11.12,0,0,1,.21,2.18Z"/><path class="cls-2" d="M289.77,35.51H265.42v8.28h24.35ZM298,43.79a8.21,8.21,0,0,1-2.12,5.76A8,8,0,0,1,289.77,52H265.42v8.28h30.46V68.5H265.42a7.89,7.89,0,0,1-5.91-2.36,8,8,0,0,1-2.3-5.85V35.51a8.35,8.35,0,0,1,2.12-5.89,7.88,7.88,0,0,1,6.09-2.32h24.35a7.92,7.92,0,0,1,5.91,2.35,8.06,8.06,0,0,1,2.3,5.86Z"/><path class="cls-2" d="M340.37,35.52H316V60.29h24.35Zm8.21,25a7.77,7.77,0,0,1-2.37,5.58,7.87,7.87,0,0,1-5.84,2.42H316V82.18h-8.21V27.3h32.56a8.23,8.23,0,0,1,5.16,1.62,7.7,7.7,0,0,1,2.84,4.42,11.12,11.12,0,0,1,.21,2.18Z"/><path class="cls-2" d="M391,35.52H366.62V60.29H391Zm8.21,25a7.74,7.74,0,0,1-2.38,5.58A7.85,7.85,0,0,1,391,68.5H366.61V82.18H358.4V27.3H391a8.25,8.25,0,0,1,5.16,1.62A7.68,7.68,0,0,1,399,33.34a10.4,10.4,0,0,1,.22,2.18Z"/><path class="cls-2" d="M441.57,35.51H417.21v8.28h24.36Zm8.2,8.28a8.17,8.17,0,0,1-2.12,5.76A8,8,0,0,1,441.57,52H417.21v8.28h30.46V68.5H417.21a7.91,7.91,0,0,1-5.91-2.36,8,8,0,0,1-2.3-5.85V35.51a8.36,8.36,0,0,1,2.13-5.89,7.84,7.84,0,0,1,6.08-2.32h24.36a8,8,0,0,1,5.91,2.35,8.05,8.05,0,0,1,2.29,5.86Z"/><path class="cls-2" d="M496.51,43.79H488.3V35.51H467.39v33h-8.21V27.3H488.3q6.6,0,7.93,5.62a11.12,11.12,0,0,1,.28,2.59Z"/><path class="cls-1" d="M37.88,82.67l1.7,6.42c.33,1.41.67,2.71.91,4h.08c.29-1.27.7-2.63,1.12-4l2.06-6.44h1.93l2,6.31c.47,1.52.84,2.85,1.12,4.12h.08a38.3,38.3,0,0,1,1-4.09l1.8-6.34h2.27L49.81,95.3H47.72l-1.93-6a39.51,39.51,0,0,1-1.12-4.15h-.06a35.87,35.87,0,0,1-1.15,4.18l-2,6H39.34L35.53,82.67Z"/><path class="cls-1" d="M64.7,87.76c0-1.44-.6-3.71-3.18-3.71-2.35,0-3.34,2.11-3.52,3.71ZM58,89.4c.05,3.11,2,4.38,4.33,4.38a8.13,8.13,0,0,0,3.5-.65l.42,1.64a10.22,10.22,0,0,1-4.23.81c-3.89,0-6.21-2.58-6.21-6.39S58,82.4,61.7,82.4c4.15,0,5.22,3.61,5.22,5.93a5,5,0,0,1-.08,1.07Z"/><path class="cls-1" d="M70.55,86.61c0-1.49,0-2.77-.11-3.94h2l.11,2.5h.07a3.83,3.83,0,0,1,3.53-2.77,4.21,4.21,0,0,1,.63.06v2.16a3.79,3.79,0,0,0-.79-.05,3.2,3.2,0,0,0-3.08,2.92,7.27,7.27,0,0,0-.08,1.07V95.3H70.55Z"/><path class="cls-1" d="M82.24,90.23a2.89,2.89,0,0,0,.1.84,3.53,3.53,0,0,0,3.45,2.69c2.42,0,3.83-2,3.83-4.86,0-2.53-1.3-4.69-3.78-4.69A3.68,3.68,0,0,0,82.37,87a3.56,3.56,0,0,0-.13,1ZM80,76.77h2.27V84.7h.05a4.69,4.69,0,0,1,4.31-2.3C89.75,82.4,92,85,92,88.82c0,4.52-2.88,6.76-5.69,6.76A4.6,4.6,0,0,1,82,93.24h0l-.13,2.06h-2c0-.86.11-2.14.11-3.27Z"/><path class="cls-1" d="M103.61,87.76c0-1.44-.6-3.71-3.19-3.71-2.35,0-3.34,2.11-3.52,3.71ZM96.87,89.4c.06,3.11,2,4.38,4.34,4.38a8.11,8.11,0,0,0,3.49-.65l.42,1.64a10.22,10.22,0,0,1-4.23.81c-3.89,0-6.21-2.58-6.21-6.39s2.25-6.79,5.93-6.79c4.15,0,5.22,3.61,5.22,5.93a5.75,5.75,0,0,1-.08,1.07Z"/><path class="cls-1" d="M116.1,88.85c-2.5,0-5.34.39-5.34,2.85a2,2,0,0,0,2.13,2.19A3.19,3.19,0,0,0,116,91.77a2.5,2.5,0,0,0,.1-.73Zm2.22,3.42a21.18,21.18,0,0,0,.19,3h-2.07l-.18-1.59h-.08a4.69,4.69,0,0,1-3.86,1.87A3.59,3.59,0,0,1,108.46,92c0-3.06,2.71-4.73,7.59-4.7V87a2.59,2.59,0,0,0-2.87-2.9,6.08,6.08,0,0,0-3.31.94l-.52-1.54a8.18,8.18,0,0,1,4.17-1.1c3.87,0,4.8,2.64,4.8,5.15Z"/><path class="cls-1" d="M131.32,87.65a3.16,3.16,0,0,0-.13-1A3.28,3.28,0,0,0,128,84.18c-2.2,0-3.76,1.85-3.76,4.77,0,2.49,1.28,4.55,3.73,4.55a3.32,3.32,0,0,0,3.19-2.35,4,4,0,0,0,.18-1.23Zm2.29,5.79c0,2.93-.59,4.68-1.79,5.8a7,7,0,0,1-4.62,1.51,8.16,8.16,0,0,1-4.21-1l.58-1.78a6.84,6.84,0,0,0,3.7,1c2.35,0,4.08-1.23,4.08-4.43V93.13h-.06a4.46,4.46,0,0,1-4,2.11c-3.13,0-5.37-2.66-5.37-6.15,0-4.28,2.79-6.69,5.71-6.69a4.21,4.21,0,0,1,3.94,2.17h.06l.07-1.9h2c-.08.88-.11,1.93-.11,3.44Z"/><path class="cls-1" d="M146.19,87.76c0-1.44-.6-3.71-3.18-3.71-2.35,0-3.35,2.11-3.53,3.71Zm-6.73,1.64c0,3.11,2,4.38,4.33,4.38a8.19,8.19,0,0,0,3.5-.65l.41,1.64a10.17,10.17,0,0,1-4.22.81c-3.89,0-6.22-2.58-6.22-6.39s2.25-6.79,5.93-6.79c4.15,0,5.22,3.61,5.22,5.93a5.75,5.75,0,0,1-.08,1.07Z"/><path class="cls-1" d="M152,86.08c0-1.33,0-2.37-.1-3.42h2l.13,2.09h.06a4.67,4.67,0,0,1,4.17-2.34c1.75,0,4.46,1,4.46,5.37V95.3h-2.29V88c0-2-.76-3.74-2.92-3.74a3.3,3.3,0,0,0-3.08,2.35,3.17,3.17,0,0,0-.16,1.07v7.6H152Z"/><path class="cls-1" d="M170,79.64v3h3.29v1.74H170v6.81c0,1.57.44,2.46,1.72,2.46a4.09,4.09,0,0,0,1.33-.16l.11,1.75a6.23,6.23,0,0,1-2,.31,3.28,3.28,0,0,1-2.48-1,5,5,0,0,1-.89-3.32V84.41h-2V82.67h2V80.32Z"/><path class="cls-1" d="M187.18,91.83c0,1.33,0,2.47.11,3.47h-2l-.13-2.06h-.05a4.74,4.74,0,0,1-4.18,2.34c-2,0-4.36-1.12-4.36-5.53V82.67h2.3v7c0,2.4.76,4.05,2.82,4.05a3.31,3.31,0,0,0,3-2.12,3.11,3.11,0,0,0,.2-1.17V82.67h2.3Z"/><path class="cls-1" d="M191.77,86.61c0-1.49,0-2.77-.1-3.94h2l.1,2.5h.08a3.81,3.81,0,0,1,3.52-2.77,4.08,4.08,0,0,1,.63.06v2.16a3.74,3.74,0,0,0-.78-.05,3.19,3.19,0,0,0-3.08,2.92,6.12,6.12,0,0,0-.08,1.07V95.3h-2.3Z"/></svg>